<svg width="500" height="500" viewBox="0 0 500 500" fill="none" xmlns="http://www.w3.org/2000/svg">
<g clip-path="url(#clip0_56_24)">
<rect width="500" height="500" rx="250" fill="white"/>
<path d="M70.7891 392.426C70.7891 391.124 71.4402 390.473 72.7423 390.473H81.7755C102.446 386.404 117.664 369.477 127.43 339.691C130.034 331.879 132.719 324.311 135.486 316.986L231.434 57.9532C232.898 53.8842 234.689 51.4428 236.805 50.629C238.921 49.8152 241.85 49.4083 245.594 49.4083H257.068C260.975 49.4083 263.497 51.1987 264.637 54.7794L393.299 366.547C398.507 379.405 411.365 387.299 431.873 390.229C433.012 390.391 433.989 390.473 434.803 390.473C435.454 390.473 435.779 391.124 435.779 392.426V398.285C435.779 399.587 435.128 400.238 433.826 400.238L289.783 400.238C288.481 400.238 287.83 399.587 287.83 398.285V392.426C287.83 391.124 288.481 390.473 289.783 390.473L293.445 390.473C297.514 389.822 302.234 389.171 307.605 388.52C328.439 385.915 338.855 377.615 338.855 363.617C338.855 359.223 337.716 354.503 335.438 349.457L242.908 124.359C241.281 121.104 239.572 121.186 237.781 124.604L152.82 354.584C151.681 357.839 151.111 361.664 151.111 366.059C151.111 370.616 152.983 374.929 156.727 378.998C160.47 383.23 164.295 385.671 168.201 386.322C171.945 386.973 174.956 387.462 177.234 387.787C179.35 388.113 182.606 388.601 187 389.252C191.395 390.066 194.324 390.473 195.789 390.473C197.254 390.473 197.986 391.124 197.986 392.426V398.285C197.986 399.587 197.335 400.238 196.033 400.238H72.7423C71.4402 400.238 70.7891 399.587 70.7891 398.285V392.426Z" fill="#292929"/>
<path d="M264.401 312.504C319.674 297.175 367.856 275.397 401.078 252.344C417.659 240.838 430.869 228.772 439.291 216.719C447.677 204.718 451.951 191.746 448.465 179.175C444.978 166.605 434.634 157.686 421.265 151.719C407.838 145.725 390.301 142.186 370.162 140.863C329.812 138.214 277.295 144.362 222.022 159.69C166.749 175.019 118.566 196.797 85.344 219.85C68.7631 231.356 55.5539 243.422 47.1316 255.475C38.7456 267.476 34.4718 280.448 37.958 293.019C41.4441 305.589 51.7886 314.508 65.1577 320.475C78.5848 326.469 96.1219 330.009 116.26 331.331C156.611 333.98 209.128 327.833 264.401 312.504Z" stroke="#636262" stroke-width="15"/>
<rect x="201.236" y="139.902" width="29.0078" height="45.904" transform="rotate(20.5 201.236 139.902)" fill="#292929"/>
<rect x="250.979" y="143.566" width="46.6158" height="29.2574" transform="rotate(-22 250.979 143.566)" fill="#292929"/>
</g>
<defs>
<clipPath id="clip0_56_24">
<rect width="500" height="500" rx="250" fill="white"/>
</clipPath>
</defs>
</svg>
