<svg width="500" height="500" viewBox="0 0 500 500" fill="none" xmlns="http://www.w3.org/2000/svg">
<g clip-path="url(#clip0_41_6)">
<rect width="500" height="500" rx="250" fill="white"/>
<path d="M70.7891 392.426C70.7891 391.124 71.4402 390.473 72.7423 390.473H81.7755C102.446 386.404 117.664 369.477 127.43 339.691C130.034 331.879 132.719 324.311 135.486 316.986L231.434 57.9532C232.898 53.8842 234.689 51.4428 236.805 50.629C238.921 49.8152 241.85 49.4083 245.594 49.4083H257.068C260.975 49.4083 263.497 51.1987 264.637 54.7794L393.299 366.547C398.507 379.405 411.365 387.299 431.873 390.229C433.012 390.391 433.989 390.473 434.803 390.473C435.454 390.473 435.779 391.124 435.779 392.426V398.285C435.779 399.587 435.128 400.238 433.826 400.238L289.783 400.238C288.481 400.238 287.83 399.587 287.83 398.285V392.426C287.83 391.124 288.481 390.473 289.783 390.473L293.445 390.473C297.514 389.822 302.234 389.171 307.605 388.52C328.439 385.915 338.855 377.615 338.855 363.617C338.855 359.223 337.716 354.503 335.438 349.457L242.908 124.359C241.281 121.104 239.572 121.186 237.781 124.604L152.82 354.584C151.681 357.839 151.111 361.664 151.111 366.059C151.111 370.616 152.983 374.929 156.727 378.998C160.47 383.23 164.295 385.671 168.201 386.322C171.945 386.973 174.956 387.462 177.234 387.787C179.35 388.113 182.606 388.601 187 389.252C191.395 390.066 194.324 390.473 195.789 390.473C197.254 390.473 197.986 391.124 197.986 392.426V398.285C197.986 399.587 197.335 400.238 196.033 400.238H72.7423C71.4402 400.238 70.7891 399.587 70.7891 398.285V392.426Z" fill="#292929"/>
<rect x="74" y="191" width="363" height="96" fill="white"/>
<path d="M135.919 220.308H142.657L156.378 255H150.055L146.173 245.918H132.013L128.131 255H122.174L135.919 220.308ZM144.024 240.278L139.093 227.412L134.137 240.278H144.024ZM168.873 220.308H175.025V249.36H192.604V255H168.873V220.308ZM237.667 249.971C234.298 253.649 229.48 255.488 223.214 255.488C220.545 255.488 218.103 255.146 215.89 254.463C213.692 253.763 211.853 252.843 210.372 251.704C208.891 250.549 207.638 249.198 206.612 247.651C205.603 246.105 204.871 244.502 204.415 242.842C203.959 241.165 203.731 239.448 203.731 237.69C203.731 235.851 203.984 234.077 204.488 232.368C204.993 230.659 205.774 229.056 206.832 227.559C207.906 226.061 209.192 224.759 210.689 223.652C212.203 222.529 214.026 221.65 216.158 221.016C218.29 220.365 220.618 220.039 223.141 220.039C227.747 220.039 231.889 221.064 235.567 223.115L236.422 223.604L233.858 228.438L232.979 227.974C231.824 227.388 230.375 226.867 228.634 226.411C226.892 225.939 225.143 225.703 223.385 225.703C221.66 225.703 219.991 225.972 218.38 226.509C216.769 227.046 215.328 227.803 214.059 228.779C212.805 229.756 211.796 231.001 211.031 232.515C210.283 234.012 209.908 235.656 209.908 237.446C209.908 239.806 210.527 241.93 211.764 243.818C213.001 245.706 214.71 247.179 216.891 248.237C219.088 249.279 221.554 249.8 224.288 249.8C227.283 249.8 229.732 249.124 231.637 247.773V241.108H220.772V235.688H237.667V249.971ZM269.938 219.941C273.469 219.941 276.611 220.633 279.361 222.017C282.112 223.4 284.277 225.418 285.855 228.071C287.434 230.708 288.224 233.776 288.224 237.275C288.224 240.824 287.451 243.973 285.904 246.724C284.358 249.458 282.185 251.582 279.386 253.096C276.586 254.609 273.372 255.366 269.742 255.366C267.35 255.366 265.079 255 262.931 254.268C260.782 253.519 258.854 252.437 257.145 251.021C255.452 249.588 254.101 247.733 253.092 245.454C252.099 243.175 251.603 240.604 251.603 237.739C251.603 234.175 252.384 231.042 253.946 228.34C255.509 225.622 257.674 223.547 260.44 222.114C263.207 220.666 266.373 219.941 269.938 219.941ZM273.136 226.021C272.013 225.728 270.865 225.581 269.693 225.581C268.521 225.581 267.382 225.728 266.275 226.021C265.169 226.297 264.103 226.745 263.077 227.363C262.068 227.965 261.181 228.714 260.416 229.609C259.651 230.505 259.041 231.611 258.585 232.93C258.129 234.232 257.901 235.672 257.901 237.251C257.901 241.011 259.065 244.03 261.393 246.309C263.72 248.587 266.625 249.727 270.108 249.727C271.557 249.727 272.957 249.491 274.308 249.019C275.675 248.547 276.936 247.847 278.092 246.919C279.247 245.991 280.175 244.73 280.875 243.135C281.575 241.54 281.925 239.725 281.925 237.69C281.925 236.03 281.681 234.517 281.192 233.149C280.704 231.766 280.053 230.618 279.239 229.707C278.442 228.796 277.506 228.022 276.432 227.388C275.374 226.753 274.275 226.297 273.136 226.021ZM299.791 236.226H322.789V241.621H299.791V236.226ZM360.968 220.308H368.17L355.963 236.836L369.513 255H361.725L351.52 241.182L341.314 255H333.746L347.491 236.909L335.26 220.308H342.682L351.983 232.563L360.968 220.308Z" fill="#4E4D4D"/>
</g>
<defs>
<clipPath id="clip0_41_6">
<rect width="500" height="500" rx="250" fill="white"/>
</clipPath>
</defs>
</svg>
