<svg width="20" height="20" viewBox="0 0 20 20" fill="none" xmlns="http://www.w3.org/2000/svg">
<path d="M11.1621 4.55857C10.7806 4.5173 10.3929 4.49365 10 4.48777C8.28292 4.49538 6.50295 4.91305 4.81812 5.71337C3.56715 6.33207 2.34857 7.20552 1.29028 8.28293C0.770533 8.83293 0.107183 9.6293 0 10.479C0.0126667 11.215 0.80255 12.1235 1.29028 12.675C2.28267 13.7101 3.46952 14.5586 4.81812 15.2446C4.86395 15.2668 4.90995 15.2888 4.95605 15.3105L3.70485 17.4955L5.40493 18.5003L14.5952 2.49977L12.9588 1.49963L11.1621 4.55857ZM15.0427 5.64988L13.7939 7.81417C14.3684 8.56053 14.7095 9.48093 14.7095 10.479C14.7095 12.9666 12.6008 14.9834 9.99877 14.9834C9.88628 14.9834 9.77727 14.9712 9.66673 14.9638L8.84032 16.3945C9.22145 16.4353 9.60682 16.4651 9.99998 16.4702C11.7187 16.4625 13.4977 16.04 15.1806 15.2446C16.4316 14.6259 17.6514 13.7525 18.7097 12.675C19.2295 12.1251 19.8928 11.3287 20 10.479C19.9873 9.74295 19.1974 8.83448 18.7097 8.28292C17.7173 7.24782 16.5292 6.39937 15.1806 5.71333C15.1351 5.69127 15.0885 5.67142 15.0427 5.64988ZM9.99878 5.9746C10.1129 5.9746 10.2261 5.97917 10.3381 5.9868L9.37012 7.66282C8.01155 7.93825 6.99218 9.09415 6.99218 10.4778C6.99218 10.8253 7.0562 11.1581 7.17407 11.4665C7.1742 11.4669 7.17393 11.4674 7.17407 11.4678L6.2036 13.1487C5.62775 12.4016 5.28807 11.4782 5.28807 10.479C5.28808 7.99137 7.3968 5.97458 9.99878 5.9746ZM12.8149 9.50852L10.6335 13.2878C11.9848 13.0072 12.9968 11.8566 12.9968 10.4778C12.9968 10.1365 12.9287 9.81212 12.8149 9.50852Z" fill="#9CA3AF"/>
</svg>
