<svg width="71" height="24" viewBox="0 0 71 24" fill="none" xmlns="http://www.w3.org/2000/svg">
<path d="M57.8664 23.8979C52.4931 24.2191 45.8949 19.5187 45.9102 11.9581C45.9102 5.83701 50.688 -0.122341 58.0774 0.00190962C65.1656 0.119127 70.0617 5.39393 70.0465 12.012C70.0663 13.6034 69.7626 15.1823 69.1537 16.6527C68.5448 18.1232 67.6435 19.4545 66.5045 20.5661C65.3654 21.6776 64.0124 22.5461 62.5275 23.1189C61.0426 23.6916 59.4568 23.9567 57.8664 23.8979ZM67.7408 11.9417C67.7271 9.34182 66.6812 6.85384 64.8331 5.02511C62.9851 3.19638 60.4862 2.17669 57.8863 2.19037C55.2864 2.20405 52.7984 3.24997 50.9697 5.09805C49.141 6.94613 48.1213 9.44497 48.135 12.0449C48.1537 17.6819 52.6443 21.7282 57.9309 21.7611C63.9688 21.7939 67.9729 16.6422 67.7408 11.9394V11.9417Z" fill="white"/>
<path d="M42.8538 23.6424C43.0521 23.8583 43.3281 23.9866 43.621 23.999C43.9139 24.0114 44.1998 23.907 44.4157 23.7086C44.6316 23.5103 44.7599 23.2343 44.7723 22.9414C44.7847 22.6485 44.6803 22.3626 44.4819 22.1467L36.4607 13.4245C36.2586 13.2247 35.9874 13.1104 35.7032 13.1053C35.4191 13.1003 35.1439 13.2048 34.9348 13.3973C34.7257 13.5898 34.5988 13.8554 34.5804 14.139C34.5621 14.4226 34.6536 14.7024 34.8361 14.9202L42.8538 23.6424Z" fill="white"/>
<path d="M45.613 1.06859V6.97168C45.612 7.19791 45.5214 7.41453 45.361 7.57406C45.2006 7.73359 44.9835 7.823 44.7573 7.82268C44.5303 7.82116 44.313 7.73046 44.1522 7.57017C43.9915 7.40987 43.9002 7.19282 43.8981 6.96582V3.25588L32.7518 14.3716C32.5468 14.5602 32.277 14.6624 31.9985 14.657C31.72 14.6516 31.4543 14.539 31.2567 14.3427C31.0592 14.1463 30.945 13.8814 30.9379 13.6029C30.9308 13.3244 31.0313 13.054 31.2186 12.8478L35.8112 8.26928L35.837 8.23646L42.3742 1.71329H38.6385C38.4127 1.71329 38.1961 1.62367 38.0363 1.46411C37.8766 1.30455 37.7866 1.0881 37.7863 0.86229C37.7862 0.749414 37.8083 0.637617 37.8514 0.533303C37.8945 0.42899 37.9578 0.334211 38.0376 0.254395C38.1175 0.17458 38.2122 0.111297 38.3166 0.0681721C38.4209 0.0250476 38.5327 0.00292877 38.6455 0.00308308H44.6447C44.8908 0.0283137 45.1207 0.137351 45.2959 0.31192C45.4711 0.486489 45.581 0.715979 45.6071 0.961925C45.6114 0.997316 45.6133 1.03295 45.613 1.06859Z" fill="url(#paint0_linear_229_1739)"/>
<path d="M28.6986 23.9132H29.5637C29.6491 23.9133 29.7337 23.8966 29.8127 23.8641C29.8917 23.8315 29.9635 23.7838 30.024 23.7234C30.0846 23.6631 30.1326 23.5915 30.1654 23.5126C30.1983 23.4338 30.2153 23.3492 30.2154 23.2638V0.654804C30.2153 0.569371 30.1983 0.484806 30.1654 0.405935C30.1326 0.327064 30.0846 0.255433 30.024 0.195132C29.9635 0.134831 29.8917 0.0870405 29.8127 0.0544891C29.7337 0.0219377 29.6491 0.00526386 29.5637 0.00541793H28.6986C28.6132 0.00526386 28.5285 0.0219377 28.4496 0.0544891C28.3706 0.0870405 28.2988 0.134831 28.2382 0.195132C28.1777 0.255433 28.1297 0.327064 28.0968 0.405935C28.064 0.484806 28.047 0.569371 28.0469 0.654804V23.2638C28.047 23.3492 28.064 23.4338 28.0968 23.5126C28.1297 23.5915 28.1777 23.6631 28.2382 23.7234C28.2988 23.7838 28.3706 23.8315 28.4496 23.8641C28.5285 23.8966 28.6132 23.9133 28.6986 23.9132Z" fill="white"/>
<path d="M23.6283 6.99751C21.7364 2.61239 16.7523 -0.329777 10.6382 0.0359429C6.6317 0.42745 2.59238 2.81869 0.728616 8.09467C-0.805766 12.4458 0.123771 16.4687 3.1351 19.8376C8.71818 26.0864 18.5399 24.7115 22.5217 18.6935C24.9939 14.9531 25.3772 11.0556 23.6283 6.99751ZM21.7903 18.1215C18.0018 23.8405 9.19057 24.7935 4.1209 19.5609C2.09538 17.4674 0.923198 14.9062 0.974774 12.1035C0.987668 6.41025 5.18289 1.63245 10.6429 0.994785C15.6258 0.408696 19.7015 2.09429 22.2779 6.46651C24.566 10.3476 24.314 14.3154 21.7891 18.1215H21.7903Z" fill="white"/>
<path d="M21.5384 7.09124C19.4155 3.33324 15.9693 1.62538 11.712 1.89029C7.59178 2.14582 4.46206 4.12681 2.77764 8.01609C0.841206 12.4856 2.30877 16.6632 5.57329 19.582C7.47456 21.2781 9.80837 21.9826 12.6743 22.0189C15.5731 21.9298 18.3008 20.828 20.4271 18.2914C23.0856 15.1136 23.6987 10.9161 21.5384 7.09124ZM10.9102 9.4438C11.5737 9.92322 12.148 10.5281 12.7494 11.0849C13.3296 11.6276 13.3355 12.2031 12.7494 12.747C12.1633 13.2909 11.603 13.884 10.9571 14.3552C10.3112 14.8264 10.1835 15.4102 10.3441 16.1662H14.435C14.4525 15.9002 14.449 15.6411 14.49 15.3879C14.5278 15.1475 14.6495 14.9283 14.8337 14.7693C15.0179 14.6102 15.2525 14.5217 15.4958 14.5193C15.7403 14.5215 15.9752 14.6145 16.155 14.7802C16.3348 14.9459 16.4466 15.1725 16.4687 15.4161C16.5121 16.0585 16.5121 16.7031 16.4687 17.3455C16.4277 17.9069 16.0385 18.2187 15.4958 18.2234C13.4077 18.2422 11.3197 18.2422 9.23166 18.2234C8.64557 18.2176 8.27282 17.8096 8.25875 17.2095C8.24 16.3233 8.21538 15.436 8.27516 14.5557C8.29509 14.2556 8.50959 13.9168 8.72996 13.6918C9.31605 13.094 9.96427 12.5489 10.6512 11.923C9.98654 11.3169 9.3266 10.7836 8.75693 10.1647C8.48753 9.85926 8.31889 9.47818 8.27399 9.0734C8.20131 8.27632 8.24585 7.46634 8.25523 6.66223C8.26461 5.88156 8.62212 5.48419 9.38287 5.47715C11.3904 5.46152 13.398 5.46152 15.4055 5.47715C16.1018 5.48419 16.471 5.88156 16.4933 6.58017C16.5085 7.10297 16.505 7.62576 16.4933 8.14972C16.4781 8.86475 16.0666 9.3219 15.47 9.31252C14.8933 9.30314 14.5065 8.86475 14.4701 8.1802C14.4619 8.02195 14.4525 7.86254 14.442 7.67264H10.3394C10.2292 8.38885 10.2538 8.96907 10.9102 9.4438Z" fill="white"/>
<defs>
<linearGradient id="paint0_linear_229_1739" x1="30.9045" y1="7.34209" x2="45.613" y2="7.34209" gradientUnits="userSpaceOnUse">
<stop stop-color="#0085FE"/>
<stop offset="1" stop-color="#29E5FF"/>
</linearGradient>
</defs>
</svg>
