<svg width="111" height="136" viewBox="0 0 111 136" fill="none" xmlns="http://www.w3.org/2000/svg">
<path d="M109.835 55.501C110.489 60.045 110.816 64.6489 110.81 69.2609C110.81 89.8584 104.708 107.274 94.0898 119.062H94.1038C84.8179 129.412 72.0533 135.403 56.9182 135.403C42.0374 135.403 27.7661 128.271 17.2437 115.575C6.72143 102.878 0.810059 85.6588 0.810059 67.7038C0.810059 49.7488 6.72143 32.5292 17.2437 19.8332C27.7661 7.13706 42.0374 0.0044672 56.9182 0.0044672C70.8466 -0.192355 84.2978 6.12138 94.4545 17.6232L78.4356 36.9514C72.6451 30.2913 64.9171 26.6441 56.9182 26.7965C42.281 26.7965 29.846 38.7116 25.4135 54.7563C23.0633 63.1638 23.0633 72.2693 25.4135 80.6767H25.4345C29.8881 96.6961 42.302 108.611 56.9392 108.611C64.4998 108.611 70.9943 106.276 76.03 102.146H76.0089C78.9329 99.8086 81.4341 96.7807 83.3616 93.245C85.289 89.7092 86.6028 85.739 87.2235 81.5737H56.9182V55.5095L109.835 55.501Z" fill="#DDDDDD"/>
</svg>
