<svg width="20" height="20" viewBox="0 0 20 20" fill="none" xmlns="http://www.w3.org/2000/svg">
<path d="M12.9974 9.99873C12.9974 11.5876 11.653 12.8756 9.99457 12.8756C8.33617 12.8756 6.99177 11.5876 6.99177 9.99873C6.99177 8.40987 8.33617 7.12187 9.99457 7.12187C11.653 7.12185 12.9974 8.40988 12.9974 9.99873ZM10 4.00867C8.28292 4.01628 6.5031 4.4343 4.81827 5.23462C3.5673 5.85332 2.34817 6.72622 1.2899 7.80363C0.770133 8.35362 0.107183 9.14998 0 9.99967C0.0126667 10.7357 0.802167 11.6442 1.2899 12.1957C2.28228 13.2308 3.46967 14.0794 4.81827 14.7654C6.38945 15.5279 8.12853 15.9669 10 15.9913C11.7187 15.9836 13.4981 15.5608 15.1811 14.7654C16.4321 14.1467 17.6518 13.2731 18.7101 12.1957C19.2299 11.6457 19.8928 10.8494 20 9.99967C19.9873 9.26365 19.1978 8.35515 18.7101 7.8036C17.7177 6.7685 16.5297 5.92062 15.1811 5.23458C13.6107 4.47265 11.8674 4.03665 10 4.00867ZM9.99873 5.49613C12.6007 5.49613 14.71 7.5127 14.71 10.0003C14.71 12.4879 12.6007 14.5045 9.99873 14.5045C7.39675 14.5045 5.28748 12.4879 5.28748 10.0003C5.28748 7.5127 7.39675 5.49613 9.99873 5.49613Z" fill="#9CA3AF"/>
</svg>
