<svg width="501" height="500" viewBox="0 0 501 500" fill="none" xmlns="http://www.w3.org/2000/svg">
<path d="M500.014 248.102C500.014 215.521 493.586 183.259 481.098 153.158C468.609 123.057 450.304 95.7059 427.229 72.6675C404.153 49.6291 376.758 31.354 346.609 18.8857C316.459 6.41735 284.144 -1.42417e-06 251.511 0L251.511 33.1555C279.783 33.1555 307.779 38.7153 333.9 49.5173C360.021 60.3194 383.755 76.1523 403.746 96.112C423.738 116.072 439.597 139.767 450.416 165.846C461.236 191.924 466.805 219.875 466.805 248.102H500.014Z" fill="#3D3C73"/>
<path d="M1.63875 250.137C1.75518 282.719 8.29736 314.96 20.8918 345.017C33.4862 375.075 51.8862 402.362 75.0412 425.319C98.1962 448.276 125.653 466.454 155.843 478.815C186.034 491.177 218.367 497.479 250.997 497.363L250.883 465.613C222.429 465.714 194.233 460.218 167.906 449.439C141.579 438.659 117.636 422.807 97.4443 402.788C77.2524 382.769 61.207 358.974 50.2242 332.763C39.2415 306.551 33.5365 278.436 33.435 250.024L1.63875 250.137Z" fill="#3D3C73"/>
<path d="M256.416 499.132C288.408 499.018 320.064 492.488 349.576 479.914C379.088 467.34 405.878 448.968 428.418 425.848C450.957 402.728 468.804 375.313 480.939 345.167C493.074 315.021 499.26 282.735 499.144 250.153L465.559 250.273C465.659 278.363 460.326 306.198 449.864 332.188C439.401 358.178 424.015 381.814 404.583 401.746C385.151 421.679 362.054 437.517 336.61 448.358C311.167 459.199 283.875 464.829 256.294 464.927L256.416 499.132Z" fill="#7372A4" fill-opacity="0.97"/>
<path d="M248.626 0.0737555C215.982 0.0640694 183.657 6.47495 153.497 18.9404C123.337 31.4058 95.9331 49.6816 72.8494 72.7244C49.7657 95.7672 31.4546 123.126 18.9613 153.238C6.46812 183.35 0.0375141 215.626 0.0366952 248.223L33.9876 248.233C33.9883 220.088 39.5406 192.22 50.3276 166.221C61.1145 140.221 76.9248 116.599 96.8557 96.7037C116.787 76.808 140.448 61.0282 166.489 50.2653C192.529 39.5024 220.439 33.9671 248.625 33.9755L248.626 0.0737555Z" fill="#7372A4" fill-opacity="0.97"/>
</svg>
